<?xml version="1.0" encoding="UTF-8" standalone="no"?>
<!-- Created with Inkscape (http://www.inkscape.org/) -->

<svg
   version="1.1"
   id="svg9"
   width="120"
   height="120"
   viewBox="0 0 120 120"
   sodipodi:docname="icon_birld2.svg"
   inkscape:version="1.1 (c68e22c387, 2021-05-23)"
   xmlns:inkscape="http://www.inkscape.org/namespaces/inkscape"
   xmlns:sodipodi="http://sodipodi.sourceforge.net/DTD/sodipodi-0.dtd"
   xmlns="http://www.w3.org/2000/svg"
   xmlns:svg="http://www.w3.org/2000/svg">
  <defs
     id="defs13" />
  <sodipodi:namedview
     id="namedview11"
     pagecolor="#ffffff"
     bordercolor="#666666"
     borderopacity="1.0"
     inkscape:pageshadow="2"
     inkscape:pageopacity="0.0"
     inkscape:pagecheckerboard="0"
     showgrid="false"
     inkscape:zoom="5.6568543"
     inkscape:cx="55.419494"
     inkscape:cy="64.788659"
     inkscape:window-width="1920"
     inkscape:window-height="1017"
     inkscape:window-x="-8"
     inkscape:window-y="-8"
     inkscape:window-maximized="1"
     inkscape:current-layer="g15" />
  <g
     inkscape:groupmode="layer"
     inkscape:label="Image"
     id="g15">
    <g
       id="g15856"
       transform="matrix(1.020071,0,0,1.0200859,-0.98206864,-0.76128883)">
      <path
         style="fill:#fd6705;stroke-width:0.6"
         d="M 62.515716,99.54981 C 60.434364,99.283284 57.194363,98.62101 55.315718,98.078094 53.437073,97.535172 49.822249,96.013086 47.282774,94.695672 44.7433,93.378264 40.835347,90.763248 38.598434,88.884534 36.36152,87.005814 33.039272,83.691594 31.215659,81.519606 29.392046,79.347612 26.55,75.248832 24.9,72.41121 23.25,69.573582 21.553524,67.240218 21.130054,67.225944 20.706583,67.211676 19.028059,67.875 17.4,68.7 15.771941,69.525 13.809917,70.2 13.039946,70.2 12.269976,70.2 11.316,69.876 10.92,69.48 9.981048,68.541048 9.997635,65.886024 10.95,64.678098 c 0.4125,-0.523194 2.215373,-1.7727 4.006384,-2.776674 l 3.256383,-1.82541 0.04361,-7.118206 c 0.0428,-6.984684 0.08608,-7.204129 2.307025,-11.698816 2.491002,-5.04121 5.799509,-8.42241 10.506782,-10.737632 2.281813,-1.122284 3.817438,-1.393043 7.929812,-1.398168 4.439755,-0.0055 5.518757,0.213024 8.334649,1.688228 1.779058,0.932022 4.55173,3.068275 6.161496,4.747228 l 2.926846,3.052643 1.982256,-0.945272 c 1.09024,-0.519899 8.822353,-4.776512 17.182471,-9.45914 13.467204,-7.543181 15.361896,-8.440202 16.618296,-7.867748 0.779946,0.355366 1.701798,1.391938 2.048568,2.303494 C 94.601348,23.554181 94.98521,26.73 95.107604,29.7 l 0.22254,5.4 2.136342,-0.176146 c 2.871524,-0.236763 9.311824,0.955528 10.983514,2.033376 0.94218,0.607487 1.34944,1.455324 1.34815,2.806602 -0.001,1.466434 -1.16286,3.537394 -4.78737,8.536168 -2.63203,3.63 -4.7912,6.935164 -4.79815,7.344808 -0.007,0.409645 0.90349,1.944985 2.02318,3.411868 3.05183,3.998116 4.26726,7.703596 4.24551,12.943324 -0.0156,3.757674 -0.32345,5.14335 -1.86621,8.4 -1.01615,2.145 -2.95359,5.143194 -4.30544,6.662658 -1.351842,1.519458 -4.157046,3.869118 -6.233784,5.221458 -2.076738,1.35234 -5.564448,3.13155 -7.750464,3.953796 -4.296738,1.616172 -11.45355,3.131076 -16.725426,3.540324 -1.815,0.140892 -5.002926,0.0381 -7.084284,-0.228426 z M 81.649536,69.45 C 90.655188,56.8275 98.565324,45.755646 99.22761,44.84588 c 0.84207,-1.156737 1.01445,-1.843822 0.573264,-2.285007 -0.441186,-0.441185 -1.75803,-0.251183 -4.379358,0.631879 -2.06166,0.694522 -4.379298,1.676101 -5.150304,2.181284 -0.771006,0.505184 -2.015922,0.830192 -2.766474,0.72224 -0.750546,-0.107952 -1.764174,-0.910474 -2.252502,-1.783382 -0.825132,-1.474973 -0.756138,-1.877694 0.976488,-5.7 1.025388,-2.262092 2.044908,-4.990617 2.265594,-6.063389 0.29385,-1.42843 0.168048,-2.039982 -0.47001,-2.284827 C 87.53919,30.07852 80.271816,33.767577 71.62653,38.588508 63.08694,43.350497 50.16,50.548478 42.9,54.584021 c -7.26,4.035543 -13.671314,7.788859 -14.247365,8.340697 -0.992943,0.95121 -0.922982,1.216194 1.346458,5.099784 1.316602,2.253042 3.799316,5.86275 5.517142,8.021574 1.717826,2.158818 4.833676,5.335908 6.924112,7.0602 2.090437,1.724286 5.536974,4.01631 7.658973,5.093376 4.29492,2.179992 10.40723,4.09236 13.28849,4.157604 1.810938,0.04098 2.5545,-0.891708 18.261726,-22.907256 z m -0.86274,21.09138 c 2.262264,-0.692238 5.71125,-2.104134 7.664424,-3.137544 4.02975,-2.132112 8.70567,-6.41979 10.242864,-9.3924 0.570546,-1.10331 1.168758,-3.514734 1.329356,-5.358726 0.25007,-2.871078 0.0424,-3.826422 -1.445822,-6.650292 C 97.621806,64.18875 96.408762,62.621832 95.881956,62.520378 95.226114,62.394072 91.83051,66.696456 85.112064,76.16628 79.71543,83.772984 75.2127,90.402402 75.106008,90.898326 74.99931,91.394244 75.30837,91.8 75.792804,91.8 c 0.484434,0 2.731734,-0.566376 4.993992,-1.25862 z M 37.333173,49.405726 C 43.694928,45.888875 49.155974,42.7844 49.468832,42.506894 49.810341,42.203973 49.229015,41.168022 48.014177,39.914627 45.427282,37.245629 41.016259,35.72501 37.327537,36.230606 35.82583,36.436438 33.436412,37.28509 32.01772,38.116498 29.59414,39.536811 26.555527,43.198988 25.559527,45.9 25.316151,46.56 24.867461,48.410035 24.562439,50.01119 23.993862,52.995821 24.326063,55.8 25.248218,55.8 c 0.28497,0 5.723201,-2.877424 12.084955,-6.394274 z"
         id="path15860" />
      <path
         style="fill:#01007e;stroke-width:0.6"
         d="m 64.920726,99.257028 c -2.94111,-2.060034 -2.40783,-3.00942 16.738848,-29.799954 9.932766,-13.898186 18.186174,-25.599338 18.340906,-26.002561 0.15473,-0.403223 0.007,-0.902922 -0.32917,-1.110441 -0.335778,-0.20752 -2.275698,0.183654 -4.310934,0.869277 -2.035242,0.685623 -3.802356,1.14467 -3.926922,1.020103 -0.124566,-0.124566 0.62679,-2.146895 1.66968,-4.494065 1.771338,-3.986647 2.042646,-4.292328 4.121328,-4.64352 2.681286,-0.453 9.351448,0.653014 11.225538,1.861363 0.94218,0.607487 1.34944,1.455324 1.34815,2.806602 -0.001,1.466434 -1.16286,3.537394 -4.78737,8.536168 -2.63203,3.63 -4.7912,6.935164 -4.79815,7.344808 -0.007,0.409645 0.90349,1.944985 2.02318,3.411868 3.05183,3.998116 4.26726,7.703596 4.24551,12.943324 -0.0156,3.757674 -0.32345,5.14335 -1.86621,8.4 -1.01615,2.145 -2.95359,5.143194 -4.30544,6.662658 -1.351838,1.519458 -4.157042,3.869118 -6.23378,5.221458 -2.076738,1.35234 -5.564448,3.13155 -7.750464,3.953796 -4.142088,1.558008 -11.05485,3.049164 -16.7547,3.614172 -2.452254,0.243086 -3.677184,0.08633 -4.65,-0.595056 z m 15.86607,-8.715648 c 2.262264,-0.692238 5.71125,-2.104134 7.664424,-3.137544 4.02975,-2.132112 8.70567,-6.41979 10.242864,-9.3924 0.570546,-1.10331 1.168758,-3.514734 1.329356,-5.358726 0.25007,-2.871078 0.0424,-3.826422 -1.445822,-6.650292 C 97.621806,64.18875 96.408762,62.621832 95.881956,62.520378 95.226114,62.394072 91.83051,66.696456 85.112064,76.16628 79.71543,83.772984 75.2127,90.402402 75.106008,90.898326 74.99931,91.394244 75.30837,91.8 75.792804,91.8 c 0.484434,0 2.731734,-0.566376 4.993992,-1.25862 z"
         id="path15858" />
    </g>
    <ellipse
       id="path35819"
       style="fill:#008000;stroke:#fd6705;stroke-width:0.999993"
       cx="18.837927"
       cy="59.506351"
       rx="1.8668456e-05"
       ry="1.8668728e-05" />
    <path
       style="fill:none;stroke:#fd6705;stroke-width:0.995275px;stroke-linecap:butt;stroke-linejoin:miter;stroke-opacity:1"
       d="m 17.591744,60.521966 c 0,0 -4.223271,-24.797618 16.134212,-30.70733"
       id="path37570" />
    <path
       style="fill:none;stroke:#fd6705;stroke-width:0.999993px;stroke-linecap:butt;stroke-linejoin:miter;stroke-opacity:1"
       d="m 17.10828,60.79006 3.53548,-0.37565"
       id="path39934" />
  </g>
</svg>
